<?xml version="1.0" encoding="UTF-8"?>
<svg xmlns:xlink="http://www.w3.org/1999/xlink" xmlns="http://www.w3.org/2000/svg" width="24" height="24" viewBox="0 0 24 24" fill="none">
  <g clip-path="url(#clip0_2_362)">
    <path fill-rule="evenodd" clip-rule="evenodd" d="M20.0064 3H3.9936C3.4446 3 3 3.4446 3 3.9936V20.0064C3 20.5554 3.4446 21 3.9936 21H12.6138V14.0295H10.2684V11.3133H12.6138V9.309C12.6138 6.9834 14.034 5.718 16.1085 5.718C17.1021 5.718 17.9553 5.7918 18.2046 5.8251V8.2551H16.7664C15.6378 8.2551 15.42 8.7915 15.42 9.5781V11.3124H18.1101L17.7591 14.0286H15.4191V21H20.0064C20.5554 21 21 20.5554 21 20.0064V3.9936C21 3.4446 20.5554 3 20.0064 3Z" fill="white"></path>
  </g>
  <defs>
    <clipPath id="clip0_2_362">
      <rect width="18" height="18" fill="white" transform="translate(3 3)"></rect>
    </clipPath>
  </defs>
</svg>
