<?xml version="1.0" encoding="UTF-8"?>
<svg xmlns:xlink="http://www.w3.org/1999/xlink" xmlns="http://www.w3.org/2000/svg" width="24" height="24" viewBox="0 0 24 24" fill="none">
  <g clip-path="url(#clip0_2_405)">
    <path d="M11.9973 8.66525C10.1611 8.66525 8.66262 10.1638 8.66262 12C8.66262 13.8362 10.1611 15.3348 11.9973 15.3348C13.8335 15.3348 15.332 13.8362 15.332 12C15.332 10.1638 13.8335 8.66525 11.9973 8.66525ZM21.9989 12C21.9989 10.6191 22.0114 9.25064 21.9338 7.87221C21.8563 6.27113 21.4911 4.85017 20.3203 3.67938C19.147 2.50609 17.7286 2.14334 16.1275 2.06579C14.7466 1.98824 13.3782 2.00074 11.9998 2.00074C10.6189 2.00074 9.25051 1.98824 7.8721 2.06579C6.27105 2.14334 4.85012 2.50859 3.67935 3.67938C2.50608 4.85267 2.14334 6.27113 2.06579 7.87221C1.98824 9.25314 2.00074 10.6216 2.00074 12C2.00074 13.3784 1.98824 14.7494 2.06579 16.1278C2.14334 17.7289 2.50858 19.1498 3.67935 20.3206C4.85262 21.4939 6.27105 21.8567 7.8721 21.9342C9.25301 22.0118 10.6214 21.9993 11.9998 21.9993C13.3807 21.9993 14.7491 22.0118 16.1275 21.9342C17.7286 21.8567 19.1495 21.4914 20.3203 20.3206C21.4936 19.1473 21.8563 17.7289 21.9338 16.1278C22.0139 14.7494 21.9989 13.3809 21.9989 12ZM11.9973 17.131C9.15795 17.131 6.86644 14.8394 6.86644 12C6.86644 9.16058 9.15795 6.86903 11.9973 6.86903C14.8367 6.86903 17.1282 9.16058 17.1282 12C17.1282 14.8394 14.8367 17.131 11.9973 17.131ZM17.4209 8.02231C16.7123 8.02231 16.14 7.45007 16.14 6.74145C16.14 6.03283 16.7123 5.46058 17.4209 5.46058C18.1295 5.46058 18.7017 6.03283 18.7017 6.74145C18.7021 7.08128 18.5673 7.40732 18.327 7.64763C18.0867 7.88793 17.7607 8.02274 17.4209 8.02231Z" fill="white"></path>
  </g>
  <defs>
    <clipPath id="clip0_2_405">
      <rect width="20" height="20" fill="white" transform="translate(2 2)"></rect>
    </clipPath>
  </defs>
</svg>
