<?xml version="1.0" encoding="UTF-8"?>
<svg xmlns:xlink="http://www.w3.org/1999/xlink" xmlns="http://www.w3.org/2000/svg" width="24" height="24" viewBox="0 0 24 24" fill="none">
  <g clip-path="url(#clip0_2_424)">
    <path d="M21 8.43367V11.8297C21 12.2048 20.6901 12.5089 20.3077 12.5089C18.8616 12.5127 17.4362 12.1718 16.154 11.5156V14.5466C16.1544 17.9623 13.4415 20.7866 9.96614 20.9885C6.49073 21.1905 3.457 18.7002 3.04643 15.3083C2.63587 11.9164 4.99073 8.7982 8.41769 8.19595C8.61768 8.16074 8.82335 8.21351 8.98017 8.34028C9.14201 8.46844 9.2346 8.66264 9.23112 8.86667V12.3986C9.23188 12.6612 9.0763 12.9001 8.83306 13.0098C8.05961 13.3713 7.67205 14.2335 7.92162 15.0375C8.1712 15.8416 8.98279 16.3455 9.83029 16.2226C10.6778 16.0998 11.3061 15.3871 11.308 14.5466V3.67921C11.308 3.30409 11.6179 3 12.0003 3H15.4617C15.844 3 16.154 3.30409 16.154 3.67921C16.154 5.92991 18.0137 7.75446 20.3077 7.75446C20.6901 7.75446 21 8.05855 21 8.43367Z" fill="white"></path>
  </g>
  <defs>
    <clipPath id="clip0_2_424">
      <rect width="18" height="18" fill="white" transform="translate(3 3)"></rect>
    </clipPath>
  </defs>
</svg>
